<svg width="134" height="36" viewBox="0 0 134 36" fill="none" xmlns="http://www.w3.org/2000/svg">
<g clip-path="url(#clip0_70_37)">
<path d="M40.4233 15.9172L38.8765 14.3692L34.9955 10.4852L32.1831 7.67063C31.9203 7.41278 31.5669 7.26835 31.1988 7.26835C30.8308 7.26835 30.4774 7.41278 30.2145 7.67063L27.4022 10.4852L23.7461 14.0315L27.6271 18L30.4395 15.1855C30.5234 15.0986 30.6239 15.0296 30.735 14.9825C30.8462 14.9353 30.9656 14.911 31.0863 14.911C31.207 14.911 31.3265 14.9353 31.4376 14.9825C31.5487 15.0296 31.6493 15.0986 31.7332 15.1855L34.2924 17.7467C34.38 17.8331 34.4495 17.9361 34.497 18.0496C34.5445 18.1632 34.5689 18.285 34.5689 18.4081C34.5689 18.5312 34.5445 18.6531 34.497 18.7666C34.4495 18.8802 34.38 18.9831 34.2924 19.0695L24.8148 28.3012C24.674 28.4338 24.4879 28.5077 24.2945 28.5077C24.1012 28.5077 23.9151 28.4338 23.7742 28.3012L20.9619 25.4867C20.8294 25.3457 20.7556 25.1595 20.7556 24.966C20.7556 24.7725 20.8294 24.5863 20.9619 24.4453L23.9711 21.4056L20.2026 17.5778L17.3902 20.3924C17.2138 20.5546 16.9829 20.6446 16.7434 20.6446C16.5038 20.6446 16.273 20.5546 16.0965 20.3924L13.5654 18C13.4787 17.916 13.4097 17.8154 13.3626 17.7042C13.3155 17.593 13.2912 17.4735 13.2912 17.3527C13.2912 17.2319 13.3155 17.1123 13.3626 17.0011C13.4097 16.8899 13.4787 16.7893 13.5654 16.7053L27.374 2.85776L24.5617 0.0432141C24.4886 -0.0358628 24.4031 -0.102423 24.3086 -0.153809H24.0836H23.1274C22.8008 -0.0758719 22.5061 0.101053 22.2837 0.35281L8.92505 13.3842L7.40638 14.904C7.09857 15.2101 6.85428 15.574 6.68758 15.975C6.52088 16.3759 6.43506 16.8058 6.43506 17.2401C6.43506 17.6743 6.52088 18.1043 6.68758 18.5052C6.85428 18.9061 7.09857 19.2701 7.40638 19.5762L8.92505 21.1242L12.8061 24.9801L16.659 28.8642L20.5119 32.6919L23.3243 35.5065C23.5919 35.7661 23.9499 35.9113 24.3226 35.9113C24.6954 35.9113 25.0534 35.7661 25.321 35.5065L38.8765 22.1092L40.4233 20.5612C41.0297 19.9407 41.3692 19.1072 41.3692 18.2392C41.3692 17.3713 41.0297 16.5378 40.4233 15.9172Z" fill="#009879"/>
<path d="M58.9848 10.5415V24.0231C58.9848 24.3217 58.8663 24.6081 58.6553 24.8192C58.4444 25.0303 58.1582 25.149 57.8599 25.149C57.7111 25.1528 57.5631 25.1264 57.4248 25.0712C57.2866 25.0159 57.1611 24.9332 57.0558 24.8278C56.9506 24.7225 56.8679 24.5969 56.8127 24.4585C56.7575 24.3202 56.7311 24.172 56.7349 24.0231V18.3941H49.7603V24.0231C49.7603 24.3217 49.6418 24.6081 49.4308 24.8192C49.2199 25.0303 48.9337 25.149 48.6354 25.149C48.337 25.149 48.0509 25.0303 47.8399 24.8192C47.629 24.6081 47.5104 24.3217 47.5104 24.0231V10.5415C47.5104 10.2429 47.629 9.95653 47.8399 9.7454C48.0509 9.53427 48.337 9.41565 48.6354 9.41565C48.9337 9.41565 49.2199 9.53427 49.4308 9.7454C49.6418 9.95653 49.7603 10.2429 49.7603 10.5415V16.1706H56.7349V10.5415C56.7311 10.3926 56.7575 10.2444 56.8127 10.1061C56.8679 9.96776 56.9506 9.8421 57.0558 9.73678C57.1611 9.63146 57.2866 9.54868 57.4248 9.49347C57.5631 9.43826 57.7111 9.41178 57.8599 9.41565C58.1582 9.41565 58.4444 9.53427 58.6553 9.7454C58.8663 9.95653 58.9848 10.2429 58.9848 10.5415Z" fill="#232323"/>
<path d="M71.2185 25.1208C70.9138 25.1818 70.5974 25.1334 70.3249 24.9841C70.0523 24.8349 69.8409 24.5943 69.728 24.3046L68.9124 21.9967H63.4283L62.4721 24.3046C62.4246 24.5479 62.2896 24.7654 62.0927 24.9158C61.8957 25.0663 61.6505 25.1392 61.4034 25.1208H61.1503C60.8574 25.0126 60.6134 24.8019 60.4635 24.5277C60.3136 24.2536 60.2679 23.9344 60.3347 23.6291L65.1439 10.2037C65.2248 9.96844 65.3762 9.76384 65.5775 9.61779C65.7788 9.47173 66.0202 9.39132 66.2688 9.38751C66.5061 9.39622 66.7346 9.47988 66.9215 9.62649C67.1085 9.77311 67.2442 9.97517 67.3094 10.2037L71.8935 23.6291C71.9516 23.771 71.9802 23.9232 71.9774 24.0765C71.9746 24.2298 71.9406 24.3809 71.8774 24.5206C71.8142 24.6603 71.7232 24.7856 71.6099 24.8888C71.4966 24.992 71.3634 25.071 71.2185 25.1208ZM68.2374 19.745L66.2688 13.9752L64.1877 19.745H68.2374Z" fill="#232323"/>
<path d="M87.952 24.192L86.0396 14.7914L82.5242 24.3046C82.4576 24.5407 82.3159 24.7486 82.1204 24.8967C81.925 25.0448 81.6865 25.125 81.4414 25.125C81.1962 25.125 80.9578 25.0448 80.7624 24.8967C80.5669 24.7486 80.4251 24.5407 80.3586 24.3046L77.2088 15.1854L75.437 24.192C75.4349 24.3542 75.3978 24.5141 75.3282 24.6607C75.2586 24.8072 75.1581 24.937 75.0337 25.0411C74.9093 25.1452 74.7639 25.2211 74.6075 25.2637C74.451 25.3063 74.2872 25.3145 74.1273 25.2878C73.9673 25.2612 73.815 25.2002 73.6808 25.1091C73.5466 25.0181 73.4337 24.899 73.3498 24.7602C73.2658 24.6214 73.2128 24.466 73.1945 24.3048C73.1761 24.1436 73.1928 23.9803 73.2434 23.8261L75.5214 10.26C75.56 10.006 75.6842 9.7729 75.8734 9.59931C76.0626 9.42573 76.3055 9.32212 76.5616 9.30568C76.8178 9.28925 77.0718 9.36098 77.2816 9.50897C77.4914 9.65696 77.6444 9.8723 77.715 10.1193L81.3711 20.3924L85.1678 10.1193C85.2376 9.87938 85.3872 9.67053 85.5918 9.52724C85.7963 9.38395 86.0436 9.31479 86.2927 9.33119C86.5443 9.33466 86.7867 9.4269 86.9771 9.59166C87.1674 9.75642 87.2935 9.98313 87.3333 10.2318L90.1456 23.7698C90.1965 24.06 90.1346 24.3587 89.9725 24.6047C89.8104 24.8506 89.5604 25.0252 89.2738 25.0926H89.0488C88.7932 25.0817 88.548 24.9879 88.3502 24.8255C88.1524 24.6631 88.0127 24.4407 87.952 24.192Z" fill="#232323"/>
<path d="M103.954 24.0231C103.948 24.3148 103.831 24.5931 103.627 24.8019C103.424 25.0108 103.149 25.1348 102.857 25.149H92.6487C92.436 25.1479 92.228 25.0865 92.0488 24.9719C91.8697 24.8573 91.7266 24.6942 91.6362 24.5016C91.5201 24.3264 91.4582 24.1208 91.4582 23.9106C91.4582 23.7003 91.5201 23.4947 91.6362 23.3195L100.748 11.5828H92.7049C92.4137 11.5687 92.1387 11.4447 91.9352 11.2358C91.7317 11.0269 91.6149 10.7487 91.6081 10.457C91.608 10.1633 91.7227 9.88108 91.9276 9.67074C92.1325 9.4604 92.4114 9.33856 92.7049 9.33121H102.857C103.071 9.32885 103.28 9.38883 103.46 9.50382C103.64 9.6188 103.782 9.78378 103.87 9.97856C103.979 10.1562 104.037 10.3609 104.037 10.5696C104.037 10.7784 103.979 10.983 103.87 11.1607L94.9829 22.8973H102.97C103.243 22.9318 103.495 23.0654 103.676 23.273C103.857 23.4805 103.956 23.7474 103.954 24.0231Z" fill="#232323"/>
<path d="M112.419 18.2815L115.569 23.4321C115.645 23.5595 115.696 23.7007 115.717 23.8476C115.739 23.9945 115.731 24.1442 115.694 24.2881C115.658 24.4319 115.593 24.5672 115.504 24.6859C115.415 24.8047 115.303 24.9047 115.175 24.9801C115.009 25.0907 114.813 25.1495 114.613 25.1489C114.417 25.1483 114.225 25.0991 114.053 25.0057C113.882 24.9124 113.736 24.7779 113.629 24.6142L109.888 18.4785H107.61V24.1076C107.603 24.4012 107.481 24.6804 107.271 24.8855C107.061 25.0906 106.779 25.2053 106.485 25.2052C106.339 25.209 106.193 25.1834 106.057 25.1299C105.921 25.0764 105.796 24.9962 105.691 24.8939C105.587 24.7916 105.503 24.6693 105.446 24.5342C105.39 24.3992 105.36 24.2541 105.36 24.1076V10.5696C105.385 10.3093 105.5 10.0659 105.685 9.88097C105.869 9.69609 106.113 9.58132 106.373 9.55637H111.154C112.328 9.57778 113.449 10.0523 114.282 10.8809C115.115 11.7095 115.597 12.8282 115.625 14.0033C115.585 14.957 115.257 15.876 114.685 16.6396C114.112 17.4031 113.323 17.9755 112.419 18.2815ZM113.516 13.9189C113.509 13.6195 113.443 13.3245 113.321 13.0506C113.2 12.7768 113.026 12.5296 112.809 12.3231C112.593 12.1167 112.337 11.9549 112.058 11.8472C111.779 11.7395 111.481 11.6879 111.182 11.6954H107.61V16.2268H111.182C111.796 16.2269 112.386 15.9846 112.823 15.5526C113.26 15.1206 113.509 14.5336 113.516 13.9189Z" fill="#232323"/>
<path d="M127.578 10.3726V12.7931C127.602 14.1179 127.158 15.4088 126.325 16.4385C125.492 17.4682 124.322 18.1706 123.022 18.4222V24.0513C123.048 24.2121 123.038 24.3766 122.994 24.5333C122.95 24.6901 122.873 24.8355 122.767 24.9594C122.661 25.0833 122.53 25.1828 122.382 25.251C122.235 25.3192 122.074 25.3545 121.911 25.3545C121.748 25.3545 121.588 25.3192 121.44 25.251C121.292 25.1828 121.161 25.0833 121.055 24.9594C120.95 24.8355 120.872 24.6901 120.828 24.5333C120.784 24.3766 120.775 24.2121 120.8 24.0513V18.4222C119.505 18.1648 118.342 17.4599 117.515 16.4308C116.687 15.4017 116.247 14.114 116.272 12.7931V10.3726C116.272 10.0815 116.388 9.80226 116.594 9.59641C116.799 9.39055 117.078 9.2749 117.369 9.2749C117.663 9.27481 117.945 9.38955 118.155 9.59463C118.365 9.79972 118.487 10.0789 118.494 10.3726V12.7931C118.494 13.7038 118.856 14.5772 119.499 15.2211C120.142 15.8651 121.015 16.2268 121.925 16.2268C122.835 16.2268 123.708 15.8651 124.351 15.2211C124.995 14.5772 125.356 13.7038 125.356 12.7931V10.3726C125.356 10.0815 125.472 9.80226 125.677 9.59641C125.883 9.39055 126.162 9.2749 126.453 9.2749C126.744 9.28167 127.022 9.39866 127.231 9.60232C127.44 9.80597 127.564 10.0812 127.578 10.3726Z" fill="#232323"/>
</g>
<defs>
<clipPath id="clip0_70_37">
<rect width="134" height="36" fill="white"/>
</clipPath>
</defs>
</svg>
